<?xml version="1.0" standalone="no"?>
<!DOCTYPE svg PUBLIC "-//W3C//DTD SVG 20010904//EN"
 "http://www.w3.org/TR/2001/REC-SVG-20010904/DTD/svg10.dtd">
<svg version="1.0" xmlns="http://www.w3.org/2000/svg"
 width="74.000000pt" height="74.000000pt" viewBox="0 0 74.000000 74.000000"
 preserveAspectRatio="xMidYMid meet">
<metadata>
Created by potrace 1.11, written by Peter Selinger 2001-2013
</metadata>
<g transform="translate(0.000000,74.000000) scale(0.100000,-0.100000)"
fill="#000000" stroke="none">
<path d="M269 696 c-201 -54 -305 -259 -219 -432 96 -196 357 -225 467 -52 50
81 27 200 -48 240 -42 23 -97 17 -121 -13 -21 -25 -14 -43 11 -29 53 28 120
-42 107 -112 -29 -154 -260 -151 -340 5 -74 144 3 323 167 386 58 22 46 26
-24 7z"/>
<path d="M304 607 c-52 -26 -82 -54 -105 -99 -49 -97 -5 -226 85 -244 36 -7
76 7 93 32 19 29 12 40 -15 25 -33 -17 -82 5 -98 46 -31 73 14 150 100 172
113 28 213 -36 251 -161 38 -127 -37 -269 -175 -332 -48 -22 -50 -24 -20 -19
19 3 58 15 85 28 219 97 265 368 89 514 -76 62 -208 80 -290 38z"/>
</g>
</svg>
