<?xml version="1.0" standalone="no"?>
<!DOCTYPE svg PUBLIC "-//W3C//DTD SVG 20010904//EN"
 "http://www.w3.org/TR/2001/REC-SVG-20010904/DTD/svg10.dtd">
<svg version="1.0" xmlns="http://www.w3.org/2000/svg"
 width="875.000000pt" height="875.000000pt" viewBox="0 0 875.000000 875.000000"
 preserveAspectRatio="xMidYMid meet">
<metadata>
Created by potrace 1.14, written by Peter Selinger 2001-2017
</metadata>
<g transform="translate(0.000000,875.000000) scale(0.100000,-0.100000)"
fill="#000000" stroke="none">
<path d="M4105 8413 c-583 -47 -1041 -170 -1540 -413 -1117 -544 -1938 -1575
-2160 -2710 -46 -236 -58 -369 -59 -630 -1 -259 9 -371 50 -600 99 -547 350
-1087 726 -1563 110 -138 417 -443 558 -551 522 -405 1107 -638 1743 -697 188
-17 594 -7 772 20 629 96 1164 351 1587 759 205 198 365 407 491 643 323 603
353 1300 84 1922 -223 515 -601 849 -1072 947 -516 108 -1049 -108 -1176 -478
-23 -67 -33 -180 -22 -240 l8 -42 70 47 c269 181 571 221 843 112 193 -77 376
-242 495 -446 222 -384 221 -926 -4 -1364 -315 -613 -1055 -983 -1861 -929
-958 65 -1757 649 -2153 1576 -188 439 -276 895 -262 1354 27 898 440 1739
1177 2398 439 393 1009 691 1615 847 94 24 161 43 150 43 -11 -1 -38 -3 -60
-5z"/>
<path d="M4767 7499 c-757 -62 -1410 -368 -1903 -889 -274 -291 -485 -668
-579 -1034 -135 -527 -78 -1049 167 -1536 174 -345 394 -573 698 -724 196 -97
366 -136 591 -136 209 0 369 36 537 120 205 102 343 262 382 441 12 56 11 202
-2 215 -4 4 -22 -4 -40 -18 -271 -204 -630 -249 -915 -114 -241 115 -434 335
-540 615 -108 287 -103 660 14 994 199 572 743 983 1448 1092 145 23 407 30
555 16 1124 -109 1983 -911 2269 -2121 67 -284 85 -465 78 -783 -6 -272 -24
-420 -81 -652 -117 -475 -333 -909 -652 -1310 -116 -145 -419 -447 -569 -567
-443 -352 -927 -594 -1470 -734 -186 -47 -179 -52 43 -29 1112 116 2142 684
2827 1560 363 463 615 1004 724 1551 46 231 55 337 55 639 1 310 -8 406 -60
660 -104 514 -357 1044 -715 1496 -109 136 -385 413 -524 523 -680 541 -1498
794 -2338 725z"/>
</g>
</svg>
