<svg class="image-not-found type_normal mw-50" viewBox="0 0 42 46" version="1.1" xmlns="http://www.w3.org/2000/svg" xmlns:xlink="http://www.w3.org/1999/xlink" focusable="false">
    <g stroke="none" stroke-width="1" fill="none" fill-rule="evenodd">
        <g transform="translate(-56.000000, -1501.000000)">
            <g transform="translate(29.000000, 1464.000000)">
                <g transform="translate(6.000000, 0.000000)">
                    <g transform="translate(23.000000, 39.000000)">
                        <g>
                            <g>
                                <path d="M11.137931,23.1382979 C11.137931,27.3276105 14.6577188,30.7234043 19,30.7234043 C23.3422812,30.7234043 26.862069,27.3276105 26.862069,23.1382979 C26.862069,18.9489853 23.3422812,15.5531915 19,15.5531915 C14.6577188,15.5531915 11.137931,18.9489853 11.137931,23.1382979 Z M35.625,9.76923077 L27.3125,9.76923077 C26.71875,7.38461538 26.125,5 23.75,5 L14.25,5 C11.875,5 11.28125,7.38461538 10.6875,9.76923077 L2.375,9.76923077 C1.06875,9.76923077 0,10.8423077 0,12.1538462 C0,19.0822325 0,24.2785222 0,27.7427154 C0,29.047753 0,31.0053094 0,33.6153846 C0,34.9269231 1.06875,36 2.375,36 C3.24583333,36 14.3291667,36 35.625,36 C36.93125,36 38,34.9269231 38,33.6153846 L38,12.1538462 C38,10.8423077 36.93125,9.76923077 35.625,9.76923077 Z M19,33.3617021 C13.2106261,33.3617021 8.51724138,28.6367829 8.51724138,22.8085106 C8.51724138,16.9802384 13.2106261,12.2553191 19,12.2553191 C24.7893739,12.2553191 29.4827586,16.9802384 29.4827586,22.8085106 C29.4827586,28.6367829 24.7893739,33.3617021 19,33.3617021 Z M35.3793103,16.8723404 L30.7931034,16.8723404 L30.7931034,14.2340426 L35.3793103,14.2340426 L35.3793103,16.8723404 Z" fill="#4A4A4A" fill-rule="nonzero"></path>
                                <path d="M0,0 C7.69692434,8.5071269 14.484788,16.0095025 20.363591,22.5071269 C26.242394,29.0047513 32.121197,35.5023756 38,42" stroke="#4A4A4A" stroke-width="2" stroke-linecap="square"></path>
                            </g>
                        </g>
                    </g>
                </g>
            </g>
        </g>
    </g>
</svg>